<?xml version="1.0" encoding="utf-8"?>
<!-- Generator: Adobe Illustrator 16.0.0, SVG Export Plug-In . SVG Version: 6.00 Build 0)  -->
<!DOCTYPE svg PUBLIC "-//W3C//DTD SVG 1.1//EN" "http://www.w3.org/Graphics/SVG/1.1/DTD/svg11.dtd">
<svg version="1.1" id="Capa_1" xmlns="http://www.w3.org/2000/svg" xmlns:xlink="http://www.w3.org/1999/xlink" x="0px" y="0px"
	 width="80px" height="80px" viewBox="0 0 80 80" enable-background="new 0 0 80 80" xml:space="preserve">
<g>
	<linearGradient id="SVGID_1_" gradientUnits="userSpaceOnUse" x1="26.7124" y1="33.21" x2="58.22" y2="52.1416">
		<stop  offset="0.4712" style="stop-color:#FFFFFF"/>
		<stop  offset="0.4817" style="stop-color:#000000"/>
	</linearGradient>
	<path fill="url(#SVGID_1_)" d="M39.941,65.5C30.048,65.5,22,57.46,22,47.577c0-5.906,2.846-9.909,6.141-14.543
		c2.948-4.146,6.289-8.846,8.415-16c0.485-1.542,1.838-2.534,3.451-2.534c1.647,0,2.997,0.997,3.438,2.54
		c2.176,7.19,5.507,11.88,8.445,16.019C55.169,37.675,58,41.662,58,47.577C58,57.46,49.898,65.5,39.941,65.5z"/>
	<path d="M40.007,15c1.276,0,2.547,0.74,2.957,2.177C47.615,32.55,57.5,36.649,57.5,47.577C57.5,57.032,49.71,65,39.941,65
		C30.174,65,22.5,57.032,22.5,47.577c0-10.928,10-15.143,14.535-30.4C37.496,15.712,38.754,15,40.007,15 M40.007,14
		c-1.835,0-3.376,1.129-3.926,2.877c-2.107,7.089-5.422,11.752-8.348,15.867c-3.345,4.705-6.233,8.767-6.233,14.833
		C21.5,57.735,29.772,66,39.941,66C50.175,66,58.5,57.735,58.5,47.577c0-6.075-2.874-10.122-6.202-14.809
		c-2.917-4.107-6.223-8.762-8.377-15.881C43.43,15.167,41.854,14,40.007,14L40.007,14z"/>
</g>
<linearGradient id="SVGID_2_" gradientUnits="userSpaceOnUse" x1="42.8135" y1="57.8779" x2="28.9979" y2="49.245">
	<stop  offset="0.5236" style="stop-color:#FFFFFF"/>
	<stop  offset="0.5445" style="stop-color:#000000"/>
</linearGradient>
<path fill="url(#SVGID_2_)" stroke="#000000" stroke-miterlimit="10" d="M29.942,48.248c0,5.919,5,10.933,11.164,10.933
	c0.927,0,1.509-0.572,1.509-1.487c0-0.904-0.696-1.587-1.509-1.587c-4.42-0.121-8.025-3.647-8.025-7.747
	c0-0.905-0.815-1.708-1.628-1.708C30.641,46.651,29.825,47.454,29.942,48.248z"/>
</svg>
