<?xml version="1.0" encoding="utf-8"?>
<!-- Generator: Adobe Illustrator 16.0.0, SVG Export Plug-In . SVG Version: 6.00 Build 0)  -->
<!DOCTYPE svg PUBLIC "-//W3C//DTD SVG 1.1//EN" "http://www.w3.org/Graphics/SVG/1.1/DTD/svg11.dtd">
<svg version="1.1" id="Capa_1" xmlns="http://www.w3.org/2000/svg" xmlns:xlink="http://www.w3.org/1999/xlink" x="0px" y="0px"
	 width="80px" height="80px" viewBox="0 0 80 80" enable-background="new 0 0 80 80" xml:space="preserve">
<g>
	<path fill="none" d="M22.5,60"/>
	<path fill="none" stroke="#000000" stroke-linejoin="bevel" stroke-miterlimit="10" d="M53.406,61.25c0,0,3.094,0,3.094-3.75
		s0-32.5,0-32.5s0-3.75-3.094-3.75s-11.344,0-11.344,0s0-2.5-2.063-2.5s-2.063,2.5-2.063,2.5s-4.367,0-7.938,0
		c-1.337,0-2.563,0-3.406,0C23.5,21.25,23.5,25,23.5,25s0,28.75,0,32.5s3.094,3.75,3.094,3.75H53.406z"/>
	
		<circle fill="none" stroke="#000000" stroke-width="0.25" stroke-linejoin="round" stroke-miterlimit="10" cx="40" cy="20.5" r="0.75"/>
	<path fill="#1B1511" stroke="#000000" stroke-width="0.5" stroke-linejoin="bevel" stroke-miterlimit="10" d="M30,21.725
		c0,0,0.002,1.25,0.001,2.5s1.25,1.25,1.25,1.25H48.75c0,0,1.25,0,1.25-1.25s0-2.5,0-2.5H30z"/>
	<path fill="#1B1511" stroke="#000000" stroke-width="1.2" stroke-linejoin="bevel" stroke-miterlimit="10" d="M31.244,35
		c-1.095,0,18.604,0,17.509,0"/>
	<path fill="#1B1511" stroke="#000000" stroke-width="1.2" stroke-linejoin="bevel" stroke-miterlimit="10" d="M31.244,40
		c-1.095,0,18.607,0,17.512,0"/>
	<path fill="#1B1511" stroke="#000000" stroke-width="1.2" stroke-linejoin="bevel" stroke-miterlimit="10" d="M31.244,45
		c-1.095,0,18.601,0,17.506,0"/>
	<path fill="#1B1511" stroke="#000000" stroke-width="1.2" stroke-linejoin="bevel" stroke-miterlimit="10" d="M31.247,50
		c-1.095,0,18.604,0,17.509,0"/>
</g>
</svg>
