<?xml version="1.0" encoding="utf-8"?>
<!-- Generator: Adobe Illustrator 16.0.0, SVG Export Plug-In . SVG Version: 6.00 Build 0)  -->
<!DOCTYPE svg PUBLIC "-//W3C//DTD SVG 1.1//EN" "http://www.w3.org/Graphics/SVG/1.1/DTD/svg11.dtd">
<svg version="1.1" id="Capa_1" xmlns="http://www.w3.org/2000/svg" xmlns:xlink="http://www.w3.org/1999/xlink" x="0px" y="0px"
	 width="80px" height="80px" viewBox="0 0 80 80" enable-background="new 0 0 80 80" xml:space="preserve">
<path fill="none" stroke="#000000" stroke-miterlimit="10" d="M20.041,22.825c0,1.731-0.091,32.984,0,34.442
	C20.132,58.725,21.316,60,22.775,60c1.458,0,31.99,0,34.45,0c2.461,0,3.737-2.916,1.914-4.738
	c-1.822-1.822-33.812-33.804-34.359-34.351S23.504,20,22.775,20C21.408,20,20.041,21.093,20.041,22.825z"/>
<g>
	<path d="M23.593,24.672c1.164,1.145,2.802,2.757,3.746,3.686c-0.239,0.222-0.477,0.446-0.624,0.593
		c-0.706,0.707-0.706,1.619,0.022,2.347l0.89,0.889c0.412,0.412,0.834,0.498,1.117,0.498c0.282,0,0.705-0.086,1.116-0.498
		l0.661-0.66l2.11,2.109c-0.241,0.224-0.482,0.451-0.629,0.599c-0.264,0.264-0.566,0.634-0.566,1.163
		c0,0.529,0.303,0.899,0.566,1.162l0.912,0.913c0.354,0.354,0.744,0.533,1.16,0.533c0.419,0,0.811-0.179,1.166-0.533
		c0.148-0.148,0.375-0.389,0.599-0.63l2.083,2.082c-0.28,0.26-0.545,0.509-0.632,0.596c-0.265,0.265-0.438,0.604-0.488,0.953
		c-0.071,0.499,0.103,0.986,0.487,1.371l0.913,0.914c0.412,0.41,0.834,0.496,1.116,0.496s0.705-0.086,1.117-0.497l0.66-0.66
		l2.109,2.109c-0.24,0.224-0.48,0.45-0.628,0.598c-0.354,0.354-0.534,0.745-0.535,1.165c0,0.416,0.18,0.807,0.534,1.161l0.286,0.286
		l0.625,0.625c0.411,0.412,0.835,0.498,1.117,0.498s0.706-0.086,1.117-0.498l0.66-0.659l2.14,2.139l-0.66,0.66
		c-0.317,0.317-0.611,0.681-0.611,1.186c0,0.528,0.326,0.854,0.521,1.049l0.393,0.393l0.519,0.518
		c0.264,0.264,0.635,0.567,1.163,0.567s0.899-0.304,1.163-0.567l0.66-0.659l3.783,3.782H23.593V24.672 M22.771,22.547
		c-0.103,0-0.179,0.101-0.179,0.277c0,0.273,0,34.078,0,34.351s0.091,0.273,0.273,0.273c0.182,0,33.903,0,34.358,0
		c0.456,0,0.365-0.273,0.183-0.456s-5.741-5.74-5.741-5.74s-1.003,1.002-1.367,1.366c-0.183,0.183-0.319,0.274-0.456,0.274
		s-0.273-0.092-0.456-0.274c-0.364-0.364-0.638-0.637-0.911-0.91s-0.364-0.365,0.091-0.82c0.456-0.456,1.367-1.367,1.367-1.367
		l-3.554-3.553c0,0-1.094,1.093-1.367,1.366c-0.137,0.137-0.273,0.205-0.41,0.205s-0.273-0.068-0.41-0.205
		c-0.273-0.273-0.638-0.638-0.911-0.911s-0.365-0.547,0-0.911c0.364-0.364,1.366-1.276,1.366-1.276l-3.554-3.553
		c0,0-1.094,1.094-1.367,1.367c-0.137,0.137-0.273,0.204-0.41,0.204s-0.273-0.067-0.41-0.204c-0.273-0.273-0.547-0.547-0.911-0.912
		c-0.365-0.364-0.183-0.729,0-0.911c0.182-0.183,1.367-1.275,1.367-1.275l-3.555-3.554c0,0-0.911,1.002-1.276,1.367
		c-0.169,0.169-0.319,0.24-0.458,0.24c-0.161,0-0.307-0.094-0.453-0.24c-0.273-0.273-0.547-0.547-0.911-0.912
		c-0.365-0.364-0.365-0.546,0-0.911c0.364-0.364,1.367-1.275,1.367-1.275l-3.555-3.554c0,0-1.094,1.094-1.367,1.367
		c-0.137,0.137-0.273,0.205-0.41,0.205c-0.136,0-0.273-0.068-0.41-0.205c-0.273-0.273-0.638-0.638-0.912-0.911s-0.364-0.546,0-0.911
		c0.365-0.364,1.367-1.275,1.367-1.275s-5.65-5.558-5.833-5.74C22.893,22.578,22.828,22.547,22.771,22.547L22.771,22.547z"/>
</g>
<g>
	<path d="M28.811,38.085c0.206,0,0.396,0.077,0.537,0.218c0.365,0.365,12.121,12.12,12.486,12.483
		c0.162,0.162,0.307,0.391,0.152,0.854c-0.132,0.396-0.459,0.479-0.711,0.479H28.79c-0.366,0-0.776-0.332-0.776-0.775V38.861
		c0-0.356,0.262-0.623,0.506-0.72C28.612,38.104,28.71,38.085,28.811,38.085 M28.811,37.585c-0.162,0-0.324,0.03-0.476,0.091
		c-0.456,0.182-0.82,0.638-0.82,1.184c0,0.547,0,11.754,0,12.483s0.638,1.275,1.276,1.275c0.638,0,11.938,0,12.485,0
		s1.003-0.273,1.186-0.82c0.182-0.546,0.091-1.002-0.273-1.366c-0.365-0.364-12.122-12.118-12.486-12.483
		C29.458,37.707,29.134,37.585,28.811,37.585L28.811,37.585z"/>
</g>
<g>
	<path d="M30.066,41.867l8.203,8.201h-8.203V41.867 M29.566,40.66v1.207v8.201v0.5h0.5h8.203h1.207l-0.854-0.854l-8.203-8.201
		L29.566,40.66L29.566,40.66z"/>
</g>
</svg>
